<svg xmlns="http://www.w3.org/2000/svg" width="1200" height="380" viewBox="0 0 1200 380" role="img" aria-label="Mini Bikcraft — Landing page de bicicletas elétricas">
  <defs>
    <linearGradient id="bg" x1="0" y1="0" x2="1" y2="1">
      <stop offset="0%" stop-color="#900000"/>
      <stop offset="100%" stop-color="#ee2211"/>
    </linearGradient>
    <filter id="sombra" x="-20%" y="-20%" width="140%" height="140%">
      <feDropShadow dx="0" dy="10" stdDeviation="16" flood-color="#000000" flood-opacity=".28"/>
    </filter>
    <clipPath id="recorte"><rect width="428" height="252" rx="18"/></clipPath>
    <clipPath id="moldura"><rect width="1200" height="380" rx="24"/></clipPath><clipPath id="janela"><rect width="440" height="280" rx="16"/></clipPath>
  </defs>

  <rect width="1200" height="380" rx="24" fill="url(#bg)"/>
  <circle cx="1105" cy="60" r="190" fill="#ffffff" opacity="0.08"/>
  <circle cx="110" cy="360" r="150" fill="#ffffff" opacity="0.064"/>
  <g clip-path="url(#moldura)">
  <g transform="translate(706,50)" filter="url(#sombra)">
    <rect width="440" height="280" rx="16" fill="#111111"/>
    <g clip-path="url(#janela)">
      
  <g transform="translate(0,0)">
    <rect width="220" height="280" fill="#f7f7f7"/>
    <svg x="58" y="18" width="104" height="24" viewBox="0 0 136 32" ><path d="M5.04 13.196C5.688 12.236 6.576 11.456 7.704 10.856C8.856 10.256 10.164 9.956 11.628 9.956C13.332 9.956 14.868 10.376 16.236 11.216C17.628 12.056 18.72 13.256 19.512 14.816C20.328 16.352 20.736 18.14 20.736 20.18C20.736 22.22 20.328 24.032 19.512 25.616C18.72 27.176 17.628 28.388 16.236 29.252C14.868 30.116 13.332 30.548 11.628 30.548C10.14 30.548 8.832 30.26 7.704 29.684C6.6 29.084 5.712 28.316 5.04 27.38V30.224H0V3.584H5.04V13.196ZM15.588 20.18C15.588 18.98 15.336 17.948 14.832 17.084C14.352 16.196 13.704 15.524 12.888 15.068C12.1004 14.6131 11.2055 14.377 10.296 14.384C9.384 14.384 8.52 14.624 7.704 15.104C6.912 15.56 6.264 16.232 5.76 17.12C5.28 18.008 5.04 19.052 5.04 20.252C5.04 21.452 5.28 22.496 5.76 23.384C6.264 24.272 6.912 24.956 7.704 25.436C8.52 25.892 9.384 26.12 10.296 26.12C11.232 26.12 12.096 25.88 12.888 25.4C13.704 24.92 14.352 24.236 14.832 23.348C15.336 22.46 15.588 21.404 15.588 20.18ZM26.954 7.904C26.066 7.904 25.322 7.628 24.722 7.076C24.146 6.5 23.858 5.792 23.858 4.952C23.858 4.112 24.146 3.416 24.722 2.864C25.322 2.288 26.066 2 26.954 2C27.842 2 28.574 2.288 29.15 2.864C29.75 3.416 30.05 4.112 30.05 4.952C30.05 5.792 29.75 6.5 29.15 7.076C28.574 7.628 27.842 7.904 26.954 7.904ZM29.438 10.28V30.224H24.398V10.28H29.438ZM46.226 30.224L39.458 21.728V30.224H34.418V3.584H39.458V18.74L46.154 10.28H52.706L43.922 20.288L52.778 30.224H46.226ZM53.145 20.252C53.145 18.188 53.565 16.388 54.405 14.852C55.245 13.292 56.409 12.092 57.897 11.252C59.385 10.388 61.089 9.956 63.009 9.956C65.481 9.956 67.521 10.58 69.129 11.828C70.761 13.052 71.853 14.78 72.405 17.012H66.97C66.682 16.148 66.19 15.476 65.494 14.996C64.822 14.492 63.982 14.24 62.974 14.24C61.534 14.24 60.394 14.768 59.554 15.824C58.714 16.856 58.294 18.332 58.294 20.252C58.294 22.148 58.714 23.624 59.554 24.68C60.394 25.712 61.534 26.228 62.974 26.228C65.014 26.228 66.346 25.316 66.97 23.492H72.406C71.854 25.652 70.762 27.368 69.13 28.64C67.498 29.912 65.458 30.548 63.01 30.548C61.09 30.548 59.386 30.128 57.898 29.288C56.4218 28.4362 55.2125 27.1895 54.406 25.688C53.566 24.128 53.146 22.316 53.146 20.252H53.145ZM80.138 13.376C80.756 12.3495 81.6227 11.4952 82.658 10.892C83.714 10.292 84.914 9.992 86.258 9.992V15.284H84.926C83.342 15.284 82.142 15.656 81.326 16.4C80.534 17.144 80.138 18.44 80.138 20.288V30.224H75.098V10.28H80.138V13.376ZM101.712 27.38C101.16 28.292 100.26 29.06 99.012 29.684C97.764 30.284 96.42 30.584 94.98 30.584C93.732 30.584 92.604 30.332 91.596 29.828C90.588 29.324 89.796 28.628 89.22 27.74C88.644 26.852 88.356 25.832 88.356 24.68C88.356 22.832 89.04 21.32 90.408 20.144C91.8 18.968 93.876 18.38 96.636 18.38H101.712C101.664 17.108 101.292 16.1 100.596 15.356C99.924 14.588 98.988 14.204 97.788 14.204C96.732 14.204 95.856 14.492 95.16 15.068C94.464 15.62 94.02 16.4 93.828 17.408H88.788C89.028 15.968 89.544 14.684 90.336 13.556C91.1449 12.41 92.2362 11.4923 93.504 10.892C94.824 10.244 96.3 9.92 97.932 9.92C99.612 9.92 101.124 10.268 102.468 10.964C103.803 11.6289 104.916 12.6669 105.672 13.952C106.44 15.248 106.824 16.772 106.824 18.524V30.224H101.712V27.38ZM96.456 26.516C97.296 26.516 98.112 26.336 98.904 25.976C99.72 25.616 100.392 25.076 100.92 24.356C101.448 23.636 101.712 22.784 101.712 21.8V21.656H96.924C95.772 21.656 94.908 21.884 94.332 22.34C93.78 22.796 93.504 23.396 93.504 24.14C93.504 24.86 93.756 25.436 94.26 25.868C94.788 26.3 95.52 26.516 96.456 26.516ZM117.453 14.42V30.224H112.341V14.42H110.073V10.28H112.341V9.272C112.341 6.824 113.037 5.024 114.429 3.872C115.821 2.72 117.921 2.18 120.729 2.252V6.5C119.505 6.476 118.653 6.68 118.173 7.112C117.693 7.544 117.453 8.324 117.453 9.452V10.28H124.003V5.348H129.079V10.28H133.543V14.42H129.079V24.068C129.079 24.74 129.235 25.232 129.547 25.544C129.883 25.832 130.435 25.976 131.203 25.976H133.543V30.224H130.375C126.127 30.224 124.003 28.16 124.003 24.032V14.42H117.453Z" fill="#000000"/></svg>
    <rect x="16" y="58" width="188" height="92" rx="4" fill="#ffffff"/>
    <rect x="30" y="74" width="120" height="12" rx="3" fill="#000000"/>
    <rect x="30" y="94" width="150" height="6" rx="3" fill="#e6e6e6"/>
    <rect x="30" y="106" width="130" height="6" rx="3" fill="#e6e6e6"/>
    <rect x="30" y="122" width="54" height="16" rx="3" fill="#ee2211"/>
    <rect x="16" y="160" width="188" height="104" rx="4" fill="#ffffff"/>
    
    <svg x="28" y="172" width="20" height="20" viewBox="0 0 24 24" ><path d="M19 7H18.18L16.48 2.32C16.3393 1.9341 16.0836 1.60065 15.7474 1.36462C15.4112 1.12858 15.0108 1.00132 14.6 1H13C12.45 1 12 1.45 12 2C12 2.55 12.45 3 13 3H14.6L16.06 7H11.25L10.89 6H10.98C11.53 6 11.98 5.55 11.98 5C11.98 4.45 11.53 4 10.98 4H8C7.45 4 7 4.45 7 5C7 5.55 7.45 6 8 6H8.75L10.57 11H9.9C9.46 8.77 7.59 7.12 5.25 7.01C2.45 6.87 0 9.2 0 12C0 14.8 2.2 17 5 17C7.46 17 9.45 15.31 9.9 13H14.1C14.54 15.23 16.41 16.88 18.75 16.99C21.55 17.12 24 14.8 24 11.99C24 9.2 21.8 7 19 7ZM6 13H7.82C7.4 14.23 6.22 15.08 4.8 14.99C3.31 14.9 2.07 13.64 2 12.14C1.93 10.39 3.27 9 5 9C6.33 9 7.42 9.83 7.82 11H6C5.45 11 5 11.45 5 12C5 12.55 5.45 13 6 13ZM14.1 11H12.7L11.97 9H15C14.56 9.58 14.24 10.25 14.1 11ZM18.88 15C17.34 14.94 16.04 13.63 16 12.08C15.98 11.12 16.39 10.28 17.05 9.72L17.67 11.42C17.86 11.94 18.43 12.21 18.95 12.02C19.47 11.83 19.74 11.26 19.55 10.74L18.92 9.01L18.93 9C19.3309 8.98633 19.7305 9.05405 20.1045 9.19908C20.4785 9.3441 20.8193 9.56343 21.1062 9.84381C21.3932 10.1242 21.6203 10.4598 21.7739 10.8304C21.9275 11.201 22.0044 11.5989 22 12C22 13.72 20.62 15.06 18.88 15ZM11 20H7L13 23V21H17L11 18V20Z" fill="url(#imgeletricasvg-paint0_linear)"/>
<defs>
<linearGradient id="imgeletricasvg-paint0_linear" x1="12" y1="1" x2="12" y2="23" gradientUnits="userSpaceOnUse">
<stop stop-color="#FF4D00"/>
<stop offset="1" stop-color="#F20C0C"/>
</linearGradient>
</defs></svg>
    <rect x="58" y="178" width="110" height="8" rx="4" fill="#000000" opacity=".75"/>
    <svg x="28" y="202" width="20" height="20" viewBox="0 0 24 24" ><path d="M19.4599 10C19.3613 10.1458 19.3029 10.315 19.2906 10.4906C19.2783 10.6662 19.3126 10.8419 19.3899 11C19.6379 11.579 19.8129 12.187 19.9099 12.81C20.1674 14.4201 19.9266 16.0705 19.2199 17.54C19.1341 17.7012 19.0058 17.8358 18.8489 17.9292C18.692 18.0227 18.5125 18.0713 18.3299 18.07H5.67994C5.49631 18.0704 5.31613 18.0202 5.15913 17.9249C5.00214 17.8297 4.87441 17.6931 4.78994 17.53C4.14982 16.2314 3.87408 14.7835 3.99213 13.3406C4.11017 11.8976 4.61756 10.5138 5.46022 9.3365C6.30288 8.15924 7.44922 7.23271 8.77702 6.6557C10.1048 6.07868 11.5643 5.8728 12.9999 6.06C13.7263 6.14538 14.4368 6.33395 15.1099 6.62C15.268 6.69738 15.4438 6.73165 15.6193 6.71936C15.7949 6.70707 15.9642 6.64865 16.1099 6.55C16.2618 6.44995 16.3835 6.31036 16.462 6.14628C16.5404 5.98219 16.5727 5.79982 16.5552 5.61879C16.5377 5.43776 16.4712 5.26492 16.3628 5.11888C16.2543 4.97285 16.1082 4.85914 15.9399 4.79C14.0081 3.96166 11.8644 3.76309 9.81335 4.2225C7.76226 4.68191 5.90808 5.77594 4.5142 7.34919C3.12031 8.92243 2.25759 10.8949 2.04859 12.9864C1.83959 15.0779 2.29493 17.182 3.34994 19C3.52445 19.3023 3.77503 19.5536 4.07677 19.7291C4.37852 19.9045 4.72092 19.9979 5.06994 20H18.9199C19.2724 20.0014 19.6189 19.9097 19.9244 19.734C20.23 19.5584 20.4837 19.3052 20.6599 19C21.4323 17.6614 21.884 16.1621 21.9794 14.6196C22.0748 13.0772 21.8114 11.5336 21.2099 10.11C21.1338 9.94776 21.0154 9.80898 20.8672 9.70818C20.719 9.60738 20.5464 9.54826 20.3675 9.53701C20.1886 9.52577 20.01 9.56281 19.8503 9.64426C19.6907 9.72571 19.5558 9.84858 19.4599 10Z" fill="url(#imgvelocidadesvg-paint0_linear)"/>
<path d="M10.59 12.5901C10.2147 12.9653 10.0039 13.4743 10.0039 14.0051C10.0039 14.2678 10.0557 14.5281 10.1562 14.7708C10.2568 15.0136 10.4042 15.2342 10.59 15.4201C10.7758 15.6059 10.9964 15.7533 11.2392 15.8538C11.482 15.9544 11.7422 16.0062 12.005 16.0062C12.5357 16.0062 13.0447 15.7953 13.42 15.4201L19.08 6.93005L10.59 12.5901V12.5901Z" fill="url(#imgvelocidadesvg-paint1_linear)"/>
<defs>
<linearGradient id="imgvelocidadesvg-paint0_linear" x1="11.9987" y1="3.98071" x2="11.9987" y2="20" gradientUnits="userSpaceOnUse">
<stop stop-color="#FF4D00"/>
<stop offset="1" stop-color="#F20C0C"/>
</linearGradient>
<linearGradient id="imgvelocidadesvg-paint1_linear" x1="14.542" y1="6.93005" x2="14.542" y2="16.0062" gradientUnits="userSpaceOnUse">
<stop stop-color="#FF4D00"/>
<stop offset="1" stop-color="#F20C0C"/>
</linearGradient>
</defs></svg>
    <rect x="58" y="208" width="70" height="8" rx="4" fill="#000000" opacity=".75"/>
    <svg x="28" y="232" width="20" height="20" viewBox="0 0 24 24" ><path d="M12 8C9.79 8 8 9.79 8 12C8 14.21 9.79 16 12 16C14.21 16 16 14.21 16 12C16 9.79 14.21 8 12 8ZM20.94 11C20.7135 8.97212 19.8042 7.08154 18.3613 5.63869C16.9185 4.19585 15.0279 3.28651 13 3.06V2C13 1.45 12.55 1 12 1C11.45 1 11 1.45 11 2V3.06C8.97212 3.28651 7.08154 4.19585 5.63869 5.63869C4.19585 7.08154 3.28651 8.97212 3.06 11H2C1.45 11 1 11.45 1 12C1 12.55 1.45 13 2 13H3.06C3.28651 15.0279 4.19585 16.9185 5.63869 18.3613C7.08154 19.8042 8.97212 20.7135 11 20.94V22C11 22.55 11.45 23 12 23C12.55 23 13 22.55 13 22V20.94C15.0279 20.7135 16.9185 19.8042 18.3613 18.3613C19.8042 16.9185 20.7135 15.0279 20.94 13H22C22.55 13 23 12.55 23 12C23 11.45 22.55 11 22 11H20.94V11ZM12 19C8.13 19 5 15.87 5 12C5 8.13 8.13 5 12 5C15.87 5 19 8.13 19 12C19 15.87 15.87 19 12 19Z" fill="url(#imgrastreadorsvg-paint0_linear)"/>
<defs>
<linearGradient id="imgrastreadorsvg-paint0_linear" x1="12" y1="1" x2="12" y2="23" gradientUnits="userSpaceOnUse">
<stop stop-color="#FF4D00"/>
<stop offset="1" stop-color="#F20C0C"/>
</linearGradient>
</defs></svg>
    <rect x="58" y="238" width="96" height="8" rx="4" fill="#000000" opacity=".75"/>
  </g>
      
  <g transform="translate(220,0)">
    <rect width="220" height="280" fill="#111111"/>
    <svg x="58" y="18" width="104" height="24" viewBox="0 0 136 32" ><path d="M5.04 13.196C5.688 12.236 6.576 11.456 7.704 10.856C8.856 10.256 10.164 9.956 11.628 9.956C13.332 9.956 14.868 10.376 16.236 11.216C17.628 12.056 18.72 13.256 19.512 14.816C20.328 16.352 20.736 18.14 20.736 20.18C20.736 22.22 20.328 24.032 19.512 25.616C18.72 27.176 17.628 28.388 16.236 29.252C14.868 30.116 13.332 30.548 11.628 30.548C10.14 30.548 8.832 30.26 7.704 29.684C6.6 29.084 5.712 28.316 5.04 27.38V30.224H0V3.584H5.04V13.196ZM15.588 20.18C15.588 18.98 15.336 17.948 14.832 17.084C14.352 16.196 13.704 15.524 12.888 15.068C12.1004 14.6131 11.2055 14.377 10.296 14.384C9.384 14.384 8.52 14.624 7.704 15.104C6.912 15.56 6.264 16.232 5.76 17.12C5.28 18.008 5.04 19.052 5.04 20.252C5.04 21.452 5.28 22.496 5.76 23.384C6.264 24.272 6.912 24.956 7.704 25.436C8.52 25.892 9.384 26.12 10.296 26.12C11.232 26.12 12.096 25.88 12.888 25.4C13.704 24.92 14.352 24.236 14.832 23.348C15.336 22.46 15.588 21.404 15.588 20.18ZM26.954 7.904C26.066 7.904 25.322 7.628 24.722 7.076C24.146 6.5 23.858 5.792 23.858 4.952C23.858 4.112 24.146 3.416 24.722 2.864C25.322 2.288 26.066 2 26.954 2C27.842 2 28.574 2.288 29.15 2.864C29.75 3.416 30.05 4.112 30.05 4.952C30.05 5.792 29.75 6.5 29.15 7.076C28.574 7.628 27.842 7.904 26.954 7.904ZM29.438 10.28V30.224H24.398V10.28H29.438ZM46.226 30.224L39.458 21.728V30.224H34.418V3.584H39.458V18.74L46.154 10.28H52.706L43.922 20.288L52.778 30.224H46.226ZM53.145 20.252C53.145 18.188 53.565 16.388 54.405 14.852C55.245 13.292 56.409 12.092 57.897 11.252C59.385 10.388 61.089 9.956 63.009 9.956C65.481 9.956 67.521 10.58 69.129 11.828C70.761 13.052 71.853 14.78 72.405 17.012H66.97C66.682 16.148 66.19 15.476 65.494 14.996C64.822 14.492 63.982 14.24 62.974 14.24C61.534 14.24 60.394 14.768 59.554 15.824C58.714 16.856 58.294 18.332 58.294 20.252C58.294 22.148 58.714 23.624 59.554 24.68C60.394 25.712 61.534 26.228 62.974 26.228C65.014 26.228 66.346 25.316 66.97 23.492H72.406C71.854 25.652 70.762 27.368 69.13 28.64C67.498 29.912 65.458 30.548 63.01 30.548C61.09 30.548 59.386 30.128 57.898 29.288C56.4218 28.4362 55.2125 27.1895 54.406 25.688C53.566 24.128 53.146 22.316 53.146 20.252H53.145ZM80.138 13.376C80.756 12.3495 81.6227 11.4952 82.658 10.892C83.714 10.292 84.914 9.992 86.258 9.992V15.284H84.926C83.342 15.284 82.142 15.656 81.326 16.4C80.534 17.144 80.138 18.44 80.138 20.288V30.224H75.098V10.28H80.138V13.376ZM101.712 27.38C101.16 28.292 100.26 29.06 99.012 29.684C97.764 30.284 96.42 30.584 94.98 30.584C93.732 30.584 92.604 30.332 91.596 29.828C90.588 29.324 89.796 28.628 89.22 27.74C88.644 26.852 88.356 25.832 88.356 24.68C88.356 22.832 89.04 21.32 90.408 20.144C91.8 18.968 93.876 18.38 96.636 18.38H101.712C101.664 17.108 101.292 16.1 100.596 15.356C99.924 14.588 98.988 14.204 97.788 14.204C96.732 14.204 95.856 14.492 95.16 15.068C94.464 15.62 94.02 16.4 93.828 17.408H88.788C89.028 15.968 89.544 14.684 90.336 13.556C91.1449 12.41 92.2362 11.4923 93.504 10.892C94.824 10.244 96.3 9.92 97.932 9.92C99.612 9.92 101.124 10.268 102.468 10.964C103.803 11.6289 104.916 12.6669 105.672 13.952C106.44 15.248 106.824 16.772 106.824 18.524V30.224H101.712V27.38ZM96.456 26.516C97.296 26.516 98.112 26.336 98.904 25.976C99.72 25.616 100.392 25.076 100.92 24.356C101.448 23.636 101.712 22.784 101.712 21.8V21.656H96.924C95.772 21.656 94.908 21.884 94.332 22.34C93.78 22.796 93.504 23.396 93.504 24.14C93.504 24.86 93.756 25.436 94.26 25.868C94.788 26.3 95.52 26.516 96.456 26.516ZM117.453 14.42V30.224H112.341V14.42H110.073V10.28H112.341V9.272C112.341 6.824 113.037 5.024 114.429 3.872C115.821 2.72 117.921 2.18 120.729 2.252V6.5C119.505 6.476 118.653 6.68 118.173 7.112C117.693 7.544 117.453 8.324 117.453 9.452V10.28H124.003V5.348H129.079V10.28H133.543V14.42H129.079V24.068C129.079 24.74 129.235 25.232 129.547 25.544C129.883 25.832 130.435 25.976 131.203 25.976H133.543V30.224H130.375C126.127 30.224 124.003 28.16 124.003 24.032V14.42H117.453Z" fill="#ffffff"/></svg>
    <rect x="16" y="58" width="188" height="92" rx="4" fill="#000000"/>
    <rect x="30" y="74" width="120" height="12" rx="3" fill="#ffffff"/>
    <rect x="30" y="94" width="150" height="6" rx="3" fill="#2a2a2a"/>
    <rect x="30" y="106" width="130" height="6" rx="3" fill="#2a2a2a"/>
    <rect x="30" y="122" width="54" height="16" rx="3" fill="#ee2211"/>
    <rect x="16" y="160" width="188" height="104" rx="4" fill="#000000"/>
    
    <svg x="28" y="172" width="20" height="20" viewBox="0 0 24 24" ><path d="M19 7H18.18L16.48 2.32C16.3393 1.9341 16.0836 1.60065 15.7474 1.36462C15.4112 1.12858 15.0108 1.00132 14.6 1H13C12.45 1 12 1.45 12 2C12 2.55 12.45 3 13 3H14.6L16.06 7H11.25L10.89 6H10.98C11.53 6 11.98 5.55 11.98 5C11.98 4.45 11.53 4 10.98 4H8C7.45 4 7 4.45 7 5C7 5.55 7.45 6 8 6H8.75L10.57 11H9.9C9.46 8.77 7.59 7.12 5.25 7.01C2.45 6.87 0 9.2 0 12C0 14.8 2.2 17 5 17C7.46 17 9.45 15.31 9.9 13H14.1C14.54 15.23 16.41 16.88 18.75 16.99C21.55 17.12 24 14.8 24 11.99C24 9.2 21.8 7 19 7ZM6 13H7.82C7.4 14.23 6.22 15.08 4.8 14.99C3.31 14.9 2.07 13.64 2 12.14C1.93 10.39 3.27 9 5 9C6.33 9 7.42 9.83 7.82 11H6C5.45 11 5 11.45 5 12C5 12.55 5.45 13 6 13ZM14.1 11H12.7L11.97 9H15C14.56 9.58 14.24 10.25 14.1 11ZM18.88 15C17.34 14.94 16.04 13.63 16 12.08C15.98 11.12 16.39 10.28 17.05 9.72L17.67 11.42C17.86 11.94 18.43 12.21 18.95 12.02C19.47 11.83 19.74 11.26 19.55 10.74L18.92 9.01L18.93 9C19.3309 8.98633 19.7305 9.05405 20.1045 9.19908C20.4785 9.3441 20.8193 9.56343 21.1062 9.84381C21.3932 10.1242 21.6203 10.4598 21.7739 10.8304C21.9275 11.201 22.0044 11.5989 22 12C22 13.72 20.62 15.06 18.88 15ZM11 20H7L13 23V21H17L11 18V20Z" fill="url(#imgeletricasvg-paint0_linear)"/>
<defs>
<linearGradient id="imgeletricasvg-paint0_linear" x1="12" y1="1" x2="12" y2="23" gradientUnits="userSpaceOnUse">
<stop stop-color="#FF4D00"/>
<stop offset="1" stop-color="#F20C0C"/>
</linearGradient>
</defs></svg>
    <rect x="58" y="178" width="110" height="8" rx="4" fill="#ffffff" opacity=".75"/>
    <svg x="28" y="202" width="20" height="20" viewBox="0 0 24 24" ><path d="M19.4599 10C19.3613 10.1458 19.3029 10.315 19.2906 10.4906C19.2783 10.6662 19.3126 10.8419 19.3899 11C19.6379 11.579 19.8129 12.187 19.9099 12.81C20.1674 14.4201 19.9266 16.0705 19.2199 17.54C19.1341 17.7012 19.0058 17.8358 18.8489 17.9292C18.692 18.0227 18.5125 18.0713 18.3299 18.07H5.67994C5.49631 18.0704 5.31613 18.0202 5.15913 17.9249C5.00214 17.8297 4.87441 17.6931 4.78994 17.53C4.14982 16.2314 3.87408 14.7835 3.99213 13.3406C4.11017 11.8976 4.61756 10.5138 5.46022 9.3365C6.30288 8.15924 7.44922 7.23271 8.77702 6.6557C10.1048 6.07868 11.5643 5.8728 12.9999 6.06C13.7263 6.14538 14.4368 6.33395 15.1099 6.62C15.268 6.69738 15.4438 6.73165 15.6193 6.71936C15.7949 6.70707 15.9642 6.64865 16.1099 6.55C16.2618 6.44995 16.3835 6.31036 16.462 6.14628C16.5404 5.98219 16.5727 5.79982 16.5552 5.61879C16.5377 5.43776 16.4712 5.26492 16.3628 5.11888C16.2543 4.97285 16.1082 4.85914 15.9399 4.79C14.0081 3.96166 11.8644 3.76309 9.81335 4.2225C7.76226 4.68191 5.90808 5.77594 4.5142 7.34919C3.12031 8.92243 2.25759 10.8949 2.04859 12.9864C1.83959 15.0779 2.29493 17.182 3.34994 19C3.52445 19.3023 3.77503 19.5536 4.07677 19.7291C4.37852 19.9045 4.72092 19.9979 5.06994 20H18.9199C19.2724 20.0014 19.6189 19.9097 19.9244 19.734C20.23 19.5584 20.4837 19.3052 20.6599 19C21.4323 17.6614 21.884 16.1621 21.9794 14.6196C22.0748 13.0772 21.8114 11.5336 21.2099 10.11C21.1338 9.94776 21.0154 9.80898 20.8672 9.70818C20.719 9.60738 20.5464 9.54826 20.3675 9.53701C20.1886 9.52577 20.01 9.56281 19.8503 9.64426C19.6907 9.72571 19.5558 9.84858 19.4599 10Z" fill="url(#imgvelocidadesvg-paint0_linear)"/>
<path d="M10.59 12.5901C10.2147 12.9653 10.0039 13.4743 10.0039 14.0051C10.0039 14.2678 10.0557 14.5281 10.1562 14.7708C10.2568 15.0136 10.4042 15.2342 10.59 15.4201C10.7758 15.6059 10.9964 15.7533 11.2392 15.8538C11.482 15.9544 11.7422 16.0062 12.005 16.0062C12.5357 16.0062 13.0447 15.7953 13.42 15.4201L19.08 6.93005L10.59 12.5901V12.5901Z" fill="url(#imgvelocidadesvg-paint1_linear)"/>
<defs>
<linearGradient id="imgvelocidadesvg-paint0_linear" x1="11.9987" y1="3.98071" x2="11.9987" y2="20" gradientUnits="userSpaceOnUse">
<stop stop-color="#FF4D00"/>
<stop offset="1" stop-color="#F20C0C"/>
</linearGradient>
<linearGradient id="imgvelocidadesvg-paint1_linear" x1="14.542" y1="6.93005" x2="14.542" y2="16.0062" gradientUnits="userSpaceOnUse">
<stop stop-color="#FF4D00"/>
<stop offset="1" stop-color="#F20C0C"/>
</linearGradient>
</defs></svg>
    <rect x="58" y="208" width="70" height="8" rx="4" fill="#ffffff" opacity=".75"/>
    <svg x="28" y="232" width="20" height="20" viewBox="0 0 24 24" ><path d="M12 8C9.79 8 8 9.79 8 12C8 14.21 9.79 16 12 16C14.21 16 16 14.21 16 12C16 9.79 14.21 8 12 8ZM20.94 11C20.7135 8.97212 19.8042 7.08154 18.3613 5.63869C16.9185 4.19585 15.0279 3.28651 13 3.06V2C13 1.45 12.55 1 12 1C11.45 1 11 1.45 11 2V3.06C8.97212 3.28651 7.08154 4.19585 5.63869 5.63869C4.19585 7.08154 3.28651 8.97212 3.06 11H2C1.45 11 1 11.45 1 12C1 12.55 1.45 13 2 13H3.06C3.28651 15.0279 4.19585 16.9185 5.63869 18.3613C7.08154 19.8042 8.97212 20.7135 11 20.94V22C11 22.55 11.45 23 12 23C12.55 23 13 22.55 13 22V20.94C15.0279 20.7135 16.9185 19.8042 18.3613 18.3613C19.8042 16.9185 20.7135 15.0279 20.94 13H22C22.55 13 23 12.55 23 12C23 11.45 22.55 11 22 11H20.94V11ZM12 19C8.13 19 5 15.87 5 12C5 8.13 8.13 5 12 5C15.87 5 19 8.13 19 12C19 15.87 15.87 19 12 19Z" fill="url(#imgrastreadorsvg-paint0_linear)"/>
<defs>
<linearGradient id="imgrastreadorsvg-paint0_linear" x1="12" y1="1" x2="12" y2="23" gradientUnits="userSpaceOnUse">
<stop stop-color="#FF4D00"/>
<stop offset="1" stop-color="#F20C0C"/>
</linearGradient>
</defs></svg>
    <rect x="58" y="238" width="96" height="8" rx="4" fill="#ffffff" opacity=".75"/>
  </g>
    </g>
    <line x1="220" y1="0" x2="220" y2="280" stroke="#ee2211" stroke-width="3"/>
    <circle cx="220" cy="140" r="20" fill="#ee2211"/>
    <path d="M220 128a12 12 0 0 1 0 24z" fill="#ffffff"/>
    <circle cx="220" cy="140" r="12" fill="none" stroke="#ffffff" stroke-width="2"/>
  </g>
  </g>

  <text x="72" y="148" font-family="system-ui,-apple-system,'Segoe UI',Roboto,sans-serif" font-size="52" font-weight="800" letter-spacing="-1" fill="#ffffff">Mini Bikcraft</text>
  <text x="74" y="196" font-family="system-ui,-apple-system,'Segoe UI',Roboto,sans-serif" font-size="24" font-weight="600" fill="#ffffff">Landing page de bicicletas elétricas</text>
  <text x="74" y="232" font-family="system-ui,-apple-system,'Segoe UI',Roboto,sans-serif" font-size="17" fill="rgba(255,255,255,.78)">HTML semântico · CSS Grid · Flexbox · custom properties</text>

  <g font-family="system-ui,-apple-system,'Segoe UI',Roboto,sans-serif" font-size="14" font-weight="600">
    <rect x="74" y="262" width="184" height="32" rx="16" fill="rgba(255,255,255,.16)"/>
    <circle cx="94" cy="278" r="4" fill="#ffffff"/><text x="106" y="283" fill="#ffffff">Tema claro/escuro</text>
    <rect x="268" y="262" width="127" height="32" rx="16" fill="rgba(255,255,255,.16)"/>
    <circle cx="288" cy="278" r="4" fill="#ffffff"/><text x="300" y="283" fill="#ffffff">Responsivo</text>
    <rect x="405" y="262" width="103" height="32" rx="16" fill="rgba(255,255,255,.16)"/>
    <circle cx="425" cy="278" r="4" fill="#ffffff"/><text x="437" y="283" fill="#ffffff">Zero JS</text>
  </g>


</svg>
